<?xml version="1.0" encoding="UTF-8"?>
<svg width="400" height="400" version="1.1" xmlns="http://www.w3.org/2000/svg">
    <path fill="#a04747"
        d="m182.03 28.42 2.9652 6.6704q-18.343 7.5966-18.343 21.678 0 9.8202 6.6701 15.008 6.8551 5.1882 15.564 5.1882 0.92746 0 2.7772-0.18798 13.341-14.082 32.24-26.866 18.899-12.785 30.016-12.785 8.5231 0 8.5231 6.8554 0 12.229-17.417 24.272-17.417 11.858-48.36 16.676-50.027 51.324-50.027 120.62 0 28.534 11.302 42.801 11.302 14.082 40.022 14.082 3.153 0 14.452-0.74104 12.785-0.55772 17.417-0.55772 21.678 0 31.128 14.082 9.6347 14.082 9.6347 34.093 0 29.275-14.823 46.136-14.823 17.046-40.577 17.046-24.273 0-24.273-16.305 0-12.785 12.97-12.785 3.705 0 13.896 3.1501 8.5233 2.7791 15.193 2.7791 11.488 0 18.158-9.079 6.8557-8.8936 6.8557-20.196 0-12.599-7.4111-18.343-7.4117-5.7436-24.458-5.7436-3.8928 0-18.899 1.1108-6.8551 0.36974-11.302 0.36974-66.517 0-66.517-80.784 0-74.485 54.103-131.74-13.897-0.36974-23.161-7.2261-9.0787-6.8556-9.0787-19.826 0-21.308 30.757-29.46z" />
</svg>
